<svg xmlns="http://www.w3.org/2000/svg" viewBox="0 0 800 520" role="img" aria-label="GPU computing laboratory">
<defs>
  <linearGradient id="rm" x1="0" y1="0" x2="0" y2="1"><stop offset="0" stop-color="#15375c"/><stop offset="1" stop-color="#0a2540"/></linearGradient>
</defs>
<rect width="800" height="520" fill="url(#rm)"/>
<!-- floor -->
<polygon points="0,420 800,420 800,520 0,520" fill="#0c2742"/>
<g stroke="#1d4e82" stroke-width="1" opacity=".5">
  <line x1="100" y1="420" x2="40" y2="520"/><line x1="300" y1="420" x2="280" y2="520"/><line x1="500" y1="420" x2="520" y2="520"/><line x1="700" y1="420" x2="760" y2="520"/>
</g>
<!-- server racks -->
<g>
  <rect x="120" y="120" width="120" height="300" rx="8" fill="#143452" stroke="#2f6db0" stroke-width="2"/>
  <rect x="340" y="120" width="120" height="300" rx="8" fill="#143452" stroke="#2f6db0" stroke-width="2"/>
  <rect x="560" y="120" width="120" height="300" rx="8" fill="#143452" stroke="#2f6db0" stroke-width="2"/>
</g>
<!-- rack units + blinking LEDs -->
<g>
  <g fill="#0e2b48">
    <!-- generate rows -->
  </g>
</g>
<g>
  <!-- rack 1 -->
  <g>
    <rect x="132" y="140" width="96" height="22" rx="3" fill="#0e2b48"/><circle cx="142" cy="151" r="4" fill="#3ddc84"/><circle cx="156" cy="151" r="4" fill="#e0651a"/>
    <rect x="132" y="170" width="96" height="22" rx="3" fill="#0e2b48"/><circle cx="142" cy="181" r="4" fill="#3ddc84"/><circle cx="156" cy="181" r="4" fill="#3ddc84"/>
    <rect x="132" y="200" width="96" height="22" rx="3" fill="#0e2b48"/><circle cx="142" cy="211" r="4" fill="#3ddc84"/><circle cx="156" cy="211" r="4" fill="#7fb0e0"/>
    <rect x="132" y="230" width="96" height="22" rx="3" fill="#0e2b48"/><circle cx="142" cy="241" r="4" fill="#e0651a"/><circle cx="156" cy="241" r="4" fill="#3ddc84"/>
    <rect x="132" y="260" width="96" height="22" rx="3" fill="#0e2b48"/><circle cx="142" cy="271" r="4" fill="#3ddc84"/><circle cx="156" cy="271" r="4" fill="#3ddc84"/>
    <rect x="132" y="290" width="96" height="22" rx="3" fill="#0e2b48"/><circle cx="142" cy="301" r="4" fill="#7fb0e0"/><circle cx="156" cy="301" r="4" fill="#e0651a"/>
  </g>
  <!-- rack 2 -->
  <g transform="translate(220,0)">
    <rect x="132" y="140" width="96" height="22" rx="3" fill="#0e2b48"/><circle cx="142" cy="151" r="4" fill="#3ddc84"/><circle cx="156" cy="151" r="4" fill="#3ddc84"/>
    <rect x="132" y="170" width="96" height="22" rx="3" fill="#0e2b48"/><circle cx="142" cy="181" r="4" fill="#e0651a"/><circle cx="156" cy="181" r="4" fill="#3ddc84"/>
    <rect x="132" y="200" width="96" height="22" rx="3" fill="#0e2b48"/><circle cx="142" cy="211" r="4" fill="#3ddc84"/><circle cx="156" cy="211" r="4" fill="#3ddc84"/>
    <rect x="132" y="230" width="96" height="22" rx="3" fill="#0e2b48"/><circle cx="142" cy="241" r="4" fill="#7fb0e0"/><circle cx="156" cy="241" r="4" fill="#3ddc84"/>
    <rect x="132" y="260" width="96" height="22" rx="3" fill="#0e2b48"/><circle cx="142" cy="271" r="4" fill="#3ddc84"/><circle cx="156" cy="271" r="4" fill="#e0651a"/>
    <rect x="132" y="290" width="96" height="22" rx="3" fill="#0e2b48"/><circle cx="142" cy="301" r="4" fill="#3ddc84"/><circle cx="156" cy="301" r="4" fill="#3ddc84"/>
  </g>
  <!-- rack 3 -->
  <g transform="translate(440,0)">
    <rect x="132" y="140" width="96" height="22" rx="3" fill="#0e2b48"/><circle cx="142" cy="151" r="4" fill="#3ddc84"/><circle cx="156" cy="151" r="4" fill="#e0651a"/>
    <rect x="132" y="170" width="96" height="22" rx="3" fill="#0e2b48"/><circle cx="142" cy="181" r="4" fill="#3ddc84"/><circle cx="156" cy="181" r="4" fill="#3ddc84"/>
    <rect x="132" y="200" width="96" height="22" rx="3" fill="#0e2b48"/><circle cx="142" cy="211" r="4" fill="#e0651a"/><circle cx="156" cy="211" r="4" fill="#7fb0e0"/>
    <rect x="132" y="230" width="96" height="22" rx="3" fill="#0e2b48"/><circle cx="142" cy="241" r="4" fill="#3ddc84"/><circle cx="156" cy="241" r="4" fill="#3ddc84"/>
    <rect x="132" y="260" width="96" height="22" rx="3" fill="#0e2b48"/><circle cx="142" cy="271" r="4" fill="#3ddc84"/><circle cx="156" cy="271" r="4" fill="#e0651a"/>
    <rect x="132" y="290" width="96" height="22" rx="3" fill="#0e2b48"/><circle cx="142" cy="301" r="4" fill="#7fb0e0"/><circle cx="156" cy="301" r="4" fill="#3ddc84"/>
  </g>
</g>
<text x="400" y="470" text-anchor="middle" font-family="Lora,serif" font-size="22" fill="#7fb0e0" letter-spacing="3">C-MInDS GPU CLUSTER</text>
</svg>
